<svg xmlns="http://www.w3.org/2000/svg" viewBox="0 0 80 80">
<defs><clipPath id="c"><circle cx="40" cy="40" r="40"/></clipPath></defs>
<circle cx="40" cy="40" r="40" fill="#E7EDE6"/>
<g clip-path="url(#c)">

<path d="M12 86 C12 66 26 60 40 60 C54 60 68 66 68 86 Z" fill="#3F4A3F"/>
<rect x="34" y="46" width="12" height="18" rx="4" fill="#A86F35"/>
<circle cx="22.5" cy="38" r="4" fill="#C68642"/><circle cx="57.5" cy="38" r="4" fill="#C68642"/>
<ellipse cx="40" cy="36" rx="17" ry="19" fill="#C68642"/>

<path d="M23 34 C22 18 30 14 40 14 C50 14 58 18 57 34 C55 28 50 24 40 25 C30 24 25 28 23 34 Z" fill="#2B2320"/><circle cx="26" cy="23" r="4.5" fill="#2B2320"/><circle cx="33" cy="17.5" r="4.5" fill="#2B2320"/><circle cx="40" cy="15.5" r="4.5" fill="#2B2320"/><circle cx="47" cy="17.5" r="4.5" fill="#2B2320"/><circle cx="54" cy="23" r="4.5" fill="#2B2320"/>
<path d="M29.5 30 q4 -3 8 -0.5" stroke="#2B2320" stroke-width="2" fill="none" stroke-linecap="round"/>
<path d="M50.5 30 q-4 -3 -8 -0.5" stroke="#2B2320" stroke-width="2" fill="none" stroke-linecap="round"/>
<ellipse cx="33.5" cy="36.5" rx="2.2" ry="2.8" fill="#2B2320"/><ellipse cx="46.5" cy="36.5" rx="2.2" ry="2.8" fill="#2B2320"/>
<circle cx="34.3" cy="35.4" r=".8" fill="#fff"/><circle cx="47.3" cy="35.4" r=".8" fill="#fff"/>
<path d="M40 38.5 q-2 4 1 5" stroke="#A86F35" stroke-width="1.5" fill="none" stroke-linecap="round"/>
<path d="M34.5 45.5 q5.5 5 11 0" stroke="#7A3E2E" stroke-width="2" fill="none" stroke-linecap="round"/>

</g>
</svg>
