<svg xmlns="http://www.w3.org/2000/svg" viewBox="0 0 80 80">
<defs><clipPath id="c"><circle cx="40" cy="40" r="40"/></clipPath></defs>
<circle cx="40" cy="40" r="40" fill="#E3EFE0"/>
<g clip-path="url(#c)">

<path d="M12 86 C12 66 26 60 40 60 C54 60 68 66 68 86 Z" fill="#3B5BA5"/>
<rect x="34" y="46" width="12" height="18" rx="4" fill="#C48F50"/>
<circle cx="22.5" cy="38" r="4" fill="#E0AC69"/><circle cx="57.5" cy="38" r="4" fill="#E0AC69"/>
<ellipse cx="40" cy="36" rx="17" ry="19" fill="#E0AC69"/>
<path d="M24 41 C25 56 32 60 40 60 C48 60 55 56 56 41 C53 50 47 53 40 53 C33 53 27 50 24 41 Z" fill="#B5502A"/>
<path d="M22 34 C21 16 30 12 40 12 C50 12 59 16 58 34 C56 26 52 22 48 25 C45 22 42 24 40 26 C37 22 34 24 32 25 C28 22 24 26 22 34 Z" fill="#B5502A"/>
<path d="M29.5 30 q4 -3 8 -0.5" stroke="#B5502A" stroke-width="2" fill="none" stroke-linecap="round"/>
<path d="M50.5 30 q-4 -3 -8 -0.5" stroke="#B5502A" stroke-width="2" fill="none" stroke-linecap="round"/>
<ellipse cx="33.5" cy="36.5" rx="2.2" ry="2.8" fill="#2B2320"/><ellipse cx="46.5" cy="36.5" rx="2.2" ry="2.8" fill="#2B2320"/>
<circle cx="34.3" cy="35.4" r=".8" fill="#fff"/><circle cx="47.3" cy="35.4" r=".8" fill="#fff"/>
<path d="M40 38.5 q-2 4 1 5" stroke="#C48F50" stroke-width="1.5" fill="none" stroke-linecap="round"/>
<path d="M34.5 45.5 q5.5 5 11 0" stroke="#8F4232" stroke-width="2" fill="none" stroke-linecap="round"/>

</g>
</svg>
